<?xml version="1.0" encoding="UTF-8"?>
<svg id="_图层_1" data-name="图层 1" xmlns="http://www.w3.org/2000/svg" viewBox="0 0 335.39 78.44">
  <defs>
    <style>
      .cls-1 {
        stroke-width: 1.28px;
      }

      .cls-1, .cls-2, .cls-3, .cls-4 {
        fill: none;
        stroke: #fcc;
        stroke-miterlimit: 10;
      }

      .cls-5 {
        fill: #fcc;
        stroke-width: 0px;
      }

      .cls-2 {
        stroke-width: 1.59px;
      }

      .cls-3 {
        stroke-width: .96px;
      }

      .cls-4 {
        stroke-width: 1.91px;
      }
    </style>
  </defs>
  <g>
    <path class="cls-5" d="M130.92,53.22c.37-6.73.64-13.02.83-18.87s.28-10.22.28-13.12c.41.02.76.02,1.04.02s.62,0,1.02-.02l-.63,14.98h21.78l.44-11.77c.03-.66.05-1.73.05-3.21.41.02.76.02,1.04.02s.62,0,1.02-.02c-.59,9.69-1.01,20.35-1.24,31.99-.39-.02-.73-.02-1.02-.02-.31,0-.66,0-1.04.02.38-5.44.61-10.63.7-15.59h-21.77l-.37,11.51-.05,4.08c-.41-.02-.75-.02-1.03-.02-.3,0-.64,0-1.03.02Z"/>
    <path class="cls-5" d="M180.54,20.74c2.23,0,4.35.34,6.34,1.01s3.73,1.77,5.21,3.28,2.54,3.25,3.18,5.21.95,4.04.95,6.25c0,2.42-.36,4.75-1.08,6.98s-1.8,4.11-3.26,5.62-3.27,2.66-5.45,3.45-4.46,1.17-6.86,1.17-4.5-.36-6.61-1.09-3.88-1.8-5.3-3.21-2.46-3.12-3.13-5.11-1-4.08-1-6.27c0-2.45.41-4.83,1.22-7.14s1.99-4.21,3.53-5.73,3.38-2.63,5.52-3.35,4.38-1.08,6.73-1.08ZM180.45,22.19c-2.16,0-4.19.33-6.1,1-1.91.66-3.57,1.74-4.97,3.23s-2.44,3.25-3.1,5.27c-.66,2.02-.99,4.14-.99,6.34,0,2.08.34,4.07,1.03,5.98.69,1.91,1.7,3.48,3.03,4.73s2.89,2.15,4.68,2.7c1.79.55,3.68.82,5.67.82,2.1,0,4.08-.3,5.95-.91,1.87-.61,3.49-1.62,4.86-3.05s2.37-3.13,3-5.12.95-4.1.95-6.32-.29-4.12-.88-6.02-1.53-3.53-2.83-4.86-2.84-2.3-4.62-2.89c-1.78-.59-3.67-.89-5.68-.89Z"/>
    <path class="cls-5" d="M200.18,52.26c0-.61-.05-1.31-.14-2.11,2.96,1.41,5.66,2.11,8.1,2.11,1.39,0,2.65-.23,3.78-.68,1.13-.45,2-1.13,2.62-2.03.62-.9.93-1.92.93-3.08,0-.58-.1-1.12-.29-1.64-.19-.51-.51-1.04-.96-1.59s-1.08-1.24-1.92-2.1c-.83-.85-2.33-2.17-4.49-3.97l-1.85-1.55c-.64-.56-1.26-1.15-1.85-1.76s-1.09-1.18-1.48-1.7c-.39-.52-.68-.99-.88-1.41-.2-.41-.35-.87-.46-1.37-.11-.5-.16-1.02-.16-1.55,0-1.27.34-2.45,1.03-3.54.69-1.09,1.71-1.96,3.07-2.6s3.09-.96,5.18-.96c1.45,0,3.3.21,5.55.63.02.59.09,1.25.21,1.97-1.44-.45-2.64-.76-3.59-.91-.96-.16-1.86-.23-2.72-.23-1.55,0-2.83.25-3.83.76-1,.51-1.78,1.19-2.32,2.04-.55.85-.82,1.75-.82,2.69,0,.5.08.99.23,1.47s.41.96.77,1.45c.36.49.83,1.03,1.42,1.62.59.59,1.29,1.26,2.1,2.01s1.89,1.71,3.24,2.88,2.3,2.01,2.86,2.5c.55.49,1.08,1.02,1.58,1.58s.91,1.12,1.22,1.68c.31.55.54,1.13.69,1.72.15.59.22,1.22.22,1.88,0,1.47-.37,2.76-1.11,3.87s-1.84,1.95-3.28,2.52c-1.45.57-3.07.86-4.86.86-1.16,0-2.28-.09-3.38-.27s-2.56-.57-4.41-1.18Z"/>
    <path class="cls-5" d="M223.1,53.22c.37-6.73.64-13.02.83-18.87s.28-10.22.28-13.12c.41.02.76.02,1.04.02s.62,0,1.02-.02l-.63,14.98h21.78l.44-11.77c.03-.66.05-1.73.05-3.21.41.02.76.02,1.04.02s.62,0,1.02-.02c-.59,9.69-1.01,20.35-1.24,31.99-.39-.02-.73-.02-1.02-.02-.31,0-.66,0-1.04.02.38-5.44.61-10.63.7-15.59h-21.77l-.37,11.51-.05,4.08c-.41-.02-.75-.02-1.03-.02-.3,0-.64,0-1.03.02Z"/>
    <path class="cls-5" d="M256.73,53.22l.51-9.4.47-14.09.09-4.88c.02-1.3.02-2.51.02-3.63.41.02.76.02,1.06.02.31,0,.67,0,1.06-.02l-.43,8.48-.55,17.46-.11,6.05c-.39-.02-.74-.02-1.06-.02s-.67,0-1.06.02Z"/>
    <path class="cls-5" d="M266.72,53.22l.54-9.23.65-18.98.07-3.77c.38.02.85.02,1.41.02s1.06,0,1.44-.02c.78,1.27,1.43,2.29,1.94,3.07.51.78,1.59,2.34,3.23,4.66l12.02,17.34c1.22,1.77,2.46,3.52,3.72,5.25l1.01-26.7.07-3.63c.41.02.73.02.96.02.25,0,.58,0,.99-.02l-.45,7.36-.76,20.02-.09,4.62c-.54-.02-1.02-.02-1.42-.02s-.87,0-1.4.02l-4.29-6.38-14.86-21.38-1.73-2.37c-.05.8-.09,1.62-.12,2.46l-.84,21.94-.12,5.72c-.41-.02-.74-.02-.99-.02s-.58,0-.99.02Z"/>
    <path class="cls-5" d="M317.53,20.74c2.23,0,4.35.34,6.34,1.01s3.73,1.77,5.21,3.28,2.54,3.25,3.18,5.21.95,4.04.95,6.25c0,2.42-.36,4.75-1.08,6.98s-1.8,4.11-3.26,5.62-3.27,2.66-5.45,3.45-4.46,1.17-6.86,1.17-4.5-.36-6.61-1.09-3.88-1.8-5.3-3.21-2.46-3.12-3.13-5.11-1-4.08-1-6.27c0-2.45.41-4.83,1.22-7.14s1.99-4.21,3.53-5.73,3.38-2.63,5.52-3.35,4.38-1.08,6.73-1.08ZM317.45,22.19c-2.16,0-4.19.33-6.1,1-1.91.66-3.57,1.74-4.97,3.23s-2.44,3.25-3.1,5.27c-.66,2.02-.99,4.14-.99,6.34,0,2.08.34,4.07,1.03,5.98.69,1.91,1.7,3.48,3.03,4.73s2.89,2.15,4.68,2.7c1.79.55,3.68.82,5.67.82,2.1,0,4.08-.3,5.95-.91,1.87-.61,3.49-1.62,4.86-3.05s2.37-3.13,3-5.12.95-4.1.95-6.32-.29-4.12-.88-6.02-1.53-3.53-2.83-4.86-2.84-2.3-4.62-2.89c-1.78-.59-3.67-.89-5.68-.89Z"/>
  </g>
  <g>
    <g>
      <path class="cls-5" d="M54.16.58c-10.19,1.8-19.26,8.52-25.01,16.9-.86,1.09-1.81,2-2.98,2.7-1.44.9-3.18,1.5-4.6,2.39-1.96,1.11-2.85,3.56-1.4,5.41,2.31,2.8,8.18,2.79,11.28,1.21,2.06-1.02,3.25-2.82,4.38-4.76,1.03-1.77,2.09-3.54,3.37-5.15,5.76-7.45,17.24-12.25,26.7-10.12,6.81,1.47,13.18,4.92,17.2,10.01,1.4,1.78,2.52,3.85,3.7,5.81,1.75,3.08,3.97,5.02,7.58,5.17,2.67.15,6.37.02,7.97-2.33,1.67-2.86-.7-5.02-3.36-6.16-1.51-.71-3.02-1.4-4.27-2.53-.75-.67-1.42-1.47-2.09-2.35-5.38-7.9-13.99-13.88-23.21-15.94-4.93-1.04-10.27-1.04-15.21-.25h-.06s0,.01,0,.01ZM69.26,2.25c9.53,1.98,17.71,8.17,23.01,16.29,1.41,2.05,3.38,3.4,5.65,4.24,2.04.74,5.04,2.54,2.67,4.66-1.89,1.56-6.09,1.75-8.58.47-2.68-1.28-4.04-4.07-5.58-6.52-.97-1.58-1.93-2.93-3.12-4.25-3.96-4.27-9.23-7.24-14.87-8.9-3.63-1.01-7.48-1.13-11.2-.63-7.25,1.05-14.1,4.7-18.72,10.24-1.84,2.16-3.35,4.93-4.86,7.21-.65.94-1.34,1.78-2.26,2.43-1.7,1.21-4.35,1.5-6.56,1.14-2.04-.2-5.29-1.96-3.25-4.17.69-.76,2.08-1.36,3.25-1.86,4.63-1.71,5.5-5.16,8.63-8.58,5.76-6.59,13.61-10.94,22.15-12.28,4.07-.58,9.26-.31,13.57.51h.06s0,.01,0,.01Z"/>
      <path class="cls-5" d="M4.42,35.37c-4.26.58-6.46,3.99-1.87,6.29,2.71,1.17,6.86,1.13,10.1,1.26,5.32.05,11.47.23,16.5-.45.87-.14,1.75-.35,2.55-.72,2.93-1.36,3.16-3.84.44-4.97-.73-.32-1.62-.53-2.62-.73-4.69-.87-9.63-1.09-14.88-1.15-3.75,0-7.24,0-10.15.46h-.06s0,0,0,0ZM21.39,36.45c3.5.33,7.3.55,10.57,1.86,1.83.87.35,1.93-.87,2.27-1.66.52-3.56.64-5.35.73-3.67.16-8.99.22-13.19.15-2.56-.07-5.17-.09-7.65-.6-4.48-.96-4.53-3.33.21-4.2,5.21-.79,11.06-.5,16.22-.22h.07s0,0,0,0Z"/>
    </g>
    <circle class="cls-4" cx="61.24" cy="38.83" r="10.96"/>
    <circle class="cls-2" cx="61.24" cy="38.83" r="18.01"/>
    <circle class="cls-1" cx="61.11" cy="38.99" r="22.64"/>
    <circle class="cls-3" cx="61.11" cy="38.83" r="24.71"/>
    <g>
      <path class="cls-5" d="M68.09,77.86c10.19-1.8,19.26-8.52,25.01-16.9.86-1.09,1.81-2,2.98-2.7,1.44-.9,3.18-1.5,4.6-2.39,1.96-1.11,2.85-3.56,1.4-5.41-2.31-2.8-8.18-2.79-11.28-1.21-2.06,1.02-3.25,2.82-4.38,4.76-1.03,1.77-2.09,3.54-3.37,5.15-5.76,7.45-17.24,12.25-26.7,10.12-6.81-1.47-13.18-4.92-17.2-10.01-1.4-1.78-2.52-3.85-3.7-5.81-1.75-3.08-3.97-5.02-7.58-5.17-2.67-.15-6.37-.02-7.97,2.33-1.67,2.86.7,5.02,3.36,6.16,1.51.71,3.02,1.4,4.27,2.53.75.67,1.42,1.47,2.09,2.35,5.38,7.9,13.99,13.88,23.21,15.94,4.93,1.04,10.27,1.04,15.21.25h.06s0-.01,0-.01ZM53,76.19c-9.53-1.98-17.71-8.17-23.01-16.29-1.41-2.05-3.38-3.4-5.65-4.24-2.04-.74-5.04-2.54-2.67-4.66,1.89-1.56,6.09-1.75,8.58-.47,2.68,1.28,4.04,4.07,5.58,6.52.97,1.58,1.93,2.93,3.12,4.25,3.96,4.27,9.23,7.24,14.87,8.9,3.63,1.01,7.48,1.13,11.2.63,7.25-1.05,14.1-4.7,18.72-10.24,1.84-2.16,3.35-4.93,4.86-7.21.65-.94,1.34-1.78,2.26-2.43,1.7-1.21,4.35-1.5,6.56-1.14,2.04.2,5.29,1.96,3.25,4.17-.69.76-2.08,1.36-3.25,1.86-4.63,1.71-5.5,5.16-8.63,8.58-5.76,6.59-13.61,10.94-22.15,12.28-4.07.58-9.26.31-13.57-.51h-.06s0-.01,0-.01Z"/>
      <path class="cls-5" d="M117.83,43.07c4.26-.58,6.46-3.99,1.87-6.29-2.71-1.17-6.86-1.13-10.1-1.26-5.32-.05-11.47-.23-16.5.45-.87.14-1.75.35-2.55.72-2.93,1.36-3.16,3.84-.44,4.97.73.32,1.62.53,2.62.73,4.69.87,9.63,1.09,14.88,1.15,3.75,0,7.24,0,10.15-.46h.06s0,0,0,0ZM100.86,41.99c-3.5-.33-7.3-.55-10.57-1.86-1.83-.87-.35-1.93.87-2.27,1.66-.52,3.56-.64,5.35-.73,3.67-.16,8.99-.22,13.19-.15,2.56.07,5.17.09,7.65.6,4.48.96,4.53,3.33-.21,4.2-5.21.79-11.06.5-16.22.22h-.07s0,0,0,0Z"/>
    </g>
  </g>
</svg>